<?xml version="1.0" encoding="UTF-8"?>
<svg width="80px" height="80px" viewBox="0 0 80 80" version="1.1" xmlns="http://www.w3.org/2000/svg" xmlns:xlink="http://www.w3.org/1999/xlink">
    <title>favicon</title>
    <g id="Page-1" stroke="none" stroke-width="1" fill="none" fill-rule="evenodd">
        <g id="favicon" fill-rule="nonzero">
            <rect id="Rectangle" fill="#000000" x="0" y="0" width="80" height="80"></rect>
            <rect id="Rectangle" stroke="#000000" stroke-width="6" fill="#000000" x="19" y="28" width="42" height="25" rx="2"></rect>
            <rect id="Rectangle" stroke="#FFFFFF" stroke-width="3" fill="#000000" x="19" y="28" width="42" height="25" rx="2"></rect>
            <rect id="Rectangle" fill="#FFFFFF" x="23" y="32" width="4" height="4"></rect>
            <rect id="Rectangle" fill="#FFFFFF" x="30" y="32" width="4" height="4"></rect>
            <rect id="Rectangle" fill="#FFFFFF" x="36" y="32" width="4" height="4"></rect>
            <rect id="Rectangle" fill="#FFFFFF" x="42" y="32" width="4" height="4"></rect>
            <rect id="Rectangle" fill="#FFFFFF" x="48" y="32" width="4" height="4"></rect>
            <rect id="Rectangle" fill="#FFFFFF" x="23" y="38" width="4" height="4"></rect>
            <rect id="Rectangle" fill="#FFFFFF" x="30" y="38" width="4" height="4"></rect>
            <rect id="Rectangle" fill="#FFFFFF" x="36" y="38" width="4" height="4"></rect>
            <rect id="Rectangle" fill="#FFFFFF" x="42" y="38" width="4" height="4"></rect>
            <rect id="Rectangle" fill="#FFFFFF" x="48" y="38" width="4" height="4"></rect>
            <rect id="Rectangle" fill="#FFFFFF" x="23" y="44" width="25" height="4"></rect>
            <rect id="Rectangle" fill="#FFFFFF" x="51" y="44" width="4" height="4"></rect>
        </g>
    </g>
</svg>