<svg xmlns="http://www.w3.org/2000/svg" viewBox="0 0 24 24">
  <rect width="100%" height="100%" fill="black"/>
  <rect x="2" y="6" width="20" height="12" rx="2" ry="2" fill="black" stroke="black" stroke-width="4"/>
  <rect x="2" y="6" width="20" height="12" rx="2" ry="2" fill="black" stroke="white" stroke-width="2"/>
  <rect x="4" y="8" width="2" height="2" fill="white"/>
  <rect x="7" y="8" width="2" height="2" fill="white"/>
  <rect x="10" y="8" width="2" height="2" fill="white"/>
  <rect x="13" y="8" width="2" height="2" fill="white"/>
  <rect x="16" y="8" width="2" height="2" fill="white"/>
  <rect x="4" y="11" width="2" height="2" fill="white"/>
  <rect x="7" y="11" width="2" height="2" fill="white"/>
  <rect x="10" y="11" width="2" height="2" fill="white"/>
  <rect x="13" y="11" width="2" height="2" fill="white"/>
  <rect x="16" y="11" width="2" height="2" fill="white"/>
  <rect x="4" y="14" width="12" height="2" fill="white"/>
  <rect x="17" y="14" width="2" height="2" fill="white"/>
</svg>
